<svg width="1020" height="528" viewBox="0 0 1020 528" fill="none" xmlns="http://www.w3.org/2000/svg">
<path d="M1020 527.209C1020 460.235 1006.81 393.916 981.18 332.04C955.549 270.164 917.982 213.942 870.624 166.585C823.267 119.227 767.045 81.6597 705.169 56.0297C643.292 30.4007 576.974 17.2087 510 17.2087C443.026 17.2087 376.707 30.4007 314.831 56.0297C252.955 81.6597 196.733 119.227 149.376 166.585C102.018 213.942 64.451 270.164 38.8214 332.04C13.1915 393.917 0 460.235 0 527.209H510H1020Z" fill="url(#paint0_linear_1_169)"/>
<path d="M951.123 0.317608C954.107 -0.931192 957.262 1.69381 956.576 4.85491L907.994 228.959C907.358 231.894 903.835 233.107 901.527 231.187L738.577 95.6097C736.268 93.6897 736.821 90.0047 739.591 88.8457L951.123 0.317608Z" fill="url(#paint1_linear_1_169)"/>
<path d="M70.0131 0.317608C67.0291 -0.931192 63.8741 1.69381 64.5591 4.85491L113.142 228.959C113.778 231.894 117.301 233.107 119.609 231.187L282.559 95.6097C284.867 93.6897 284.315 90.0047 281.545 88.8457L70.0131 0.317608Z" fill="url(#paint2_linear_1_169)"/>
<path d="M94.6791 32.4147C91.6951 31.1667 88.5401 33.7917 89.2251 36.9527L121.11 184.034C121.746 186.968 125.269 188.182 127.577 186.261L234.522 97.2807C236.831 95.3607 236.279 91.6757 233.508 90.5167L94.6791 32.4147Z" fill="black"/>
<path d="M921.121 36.4147C924.105 35.1667 927.26 37.7917 926.574 40.9527L894.69 188.034C894.053 190.968 890.531 192.182 888.222 190.261L781.277 101.281C778.969 99.3607 779.521 95.6757 782.291 94.5167L921.121 36.4147Z" fill="black"/>
<path d="M323 303.209C350.614 303.209 373 280.823 373 253.209C373 225.595 350.614 203.209 323 203.209C295.386 203.209 273 225.595 273 253.209C273 280.823 295.386 303.209 323 303.209Z" fill="black"/>
<path d="M698 303.209C725.614 303.209 748 280.823 748 253.209C748 225.595 725.614 203.209 698 203.209C670.386 203.209 648 225.595 648 253.209C648 280.823 670.386 303.209 698 303.209Z" fill="black"/>
<path d="M516.749 400.607C513.605 405.546 506.395 405.546 503.251 400.607L480.588 365.005C477.198 359.679 481.024 352.709 487.337 352.709H532.663C538.976 352.709 542.802 359.679 539.412 365.005L516.749 400.607Z" fill="black"/>
<path d="M73 409.621H323" stroke="black" stroke-width="4"/>
<path d="M948.202 409.621H698.202" stroke="black" stroke-width="4"/>
<path d="M77.3472 322.239L323.549 365.651" stroke="black" stroke-width="4"/>
<path d="M943.854 322.239L697.652 365.651" stroke="black" stroke-width="4"/>
<path d="M76.6528 497.063L322.855 453.651" stroke="black" stroke-width="4"/>
<path d="M944.549 497.063L698.347 453.651" stroke="black" stroke-width="4"/>
<defs>
<linearGradient id="paint0_linear_1_169" x1="510" y1="17.2087" x2="510" y2="527.209" gradientUnits="userSpaceOnUse">
<stop stop-color="#FFFAC2"/>
<stop offset="0.2" stop-color="#FFF9B6"/>
<stop offset="0.4" stop-color="#FFF8A2"/>
<stop offset="0.6" stop-color="#FFF68C"/>
<stop offset="0.8" stop-color="#FFF25C"/>
</linearGradient>
<linearGradient id="paint1_linear_1_169" x1="954.5" y1="2.20871" x2="817.5" y2="158.209" gradientUnits="userSpaceOnUse">
<stop stop-color="#FFF25C"/>
<stop offset="0.3" stop-color="#FFF68C"/>
<stop offset="0.4" stop-color="#FFF8A2"/>
<stop offset="0.6" stop-color="#FFFAC2"/>
<stop offset="0.8" stop-color="#FFF9B6"/>
</linearGradient>
<linearGradient id="paint2_linear_1_169" x1="66.6361" y1="2.20871" x2="203.636" y2="158.209" gradientUnits="userSpaceOnUse">
<stop stop-color="#FFF25C"/>
<stop offset="0.3" stop-color="#FFF68C"/>
<stop offset="0.4" stop-color="#FFF8A2"/>
<stop offset="0.6" stop-color="#FFFAC2"/>
<stop offset="0.8" stop-color="#FFF9B6"/>
</linearGradient>
</defs>
</svg>
